# xmcd
#
# Track frame offsets:
#   150
#   18079
#   35620
#   52542
#   67916
#   82800
#   100029
#   119033
#   137902
#   158762
#   174745
#   189427
#
# Disc length: 2713 seconds
#
# Revision: 0
# Processed by: cddbd v1.5.2PL0 Copyright (c) Steve Scherf et al.
# Submitted via: GXTranscoder 2.0.1939
#
DISCID=8e0a970c
DTITLE=Colbie Caillat - Bubbly
DYEAR=2008
DGENRE=Blues
TTITLE0=Oxygen
TTITLE1=the little things
TTITLE2=on fire wire
TTITLE3=bubbly
TTITLE4=feelings shox
TTITLE5=midnight bottle
TTITLE6=realize
TTITLE7=battle
TTITLE8=tailor made
TTITLE9=magic
TTITLE10=tied com
TTITLE11=capri
EXTD=
EXTT0=
EXTT1=
EXTT2=
EXTT3=
EXTT4=
EXTT5=
EXTT6=
EXTT7=
EXTT8=
EXTT9=
EXTT10=
EXTT11=
PLAYORDER=
